<mxfile host="app.diagrams.net" modified="2024-05-14T13:59:13.397Z" agent="Mozilla/5.0 (Windows NT 10.0; Win64; x64; rv:125.0) Gecko/20100101 Firefox/125.0" version="24.4.0" etag="hojY7eR3zch9vqLX8-M9" type="github">
  <diagram name="PÃ¡gina-1" id="jeI3qgtY-J405n5xUrlL">
    <mxGraphModel>
      <root>
        <mxCell id="0" />
        <mxCell id="1" parent="0" />
      </root>
    </mxGraphModel>
  </diagram>
</mxfile>
